<svg xmlns="http://www.w3.org/2000/svg" width="612.008" height="612.008" viewBox="0 0 612.008 612.008"><path d="M609.208 298.575L313.306 3.815a10.201 10.201 0 0 0-14.433 0L2.961 298.575c-3.988 3.988-3.907 10.353 0 14.393 1.999 2.06 4.61 3.11 7.201 3.131v.041h71.441v284.865c0 2.815 1.142 5.335 2.988 7.171a10.144 10.144 0 0 0 7.211 3.009h142.8c5.63 0 10.2-4.569 10.2-10.18V397.556h122.401v203.449c0 5.6 4.569 10.18 10.2 10.18h142.8c5.63 0 10.2-4.569 10.2-10.18V316.14h71.899c2.673.051 5.191-1 6.905-3.162 3.469-4.437 3.99-10.415.001-14.403z"/></svg>