<svg xmlns="http://www.w3.org/2000/svg" viewBox="0 0 50 50" fill="#f39c12" width="50" height="50"><path d="M43.334 4H6.667A2.67 2.67 0 0 0 4 6.667v36.666A2.67 2.67 0 0 0 6.667 46h36.666A2.67 2.67 0 0 0 46 43.334V6.667A2.67 2.67 0 0 0 43.334 4zM27 36.182C27 40.18 24.656 42 21.234 42c-3.092 0-5.324-2.073-6.234-4l3.143-1.903C18.75 37.173 19.673 38 21 38c1.269 0 2-.496 2-2.426V23h4v13.182zM35.677 42c-3.544 0-5.557-1.787-6.677-4l3-2c.818 1.335 1.707 2.614 3.589 2.614 1.581 0 2.411-.79 2.411-1.882 0-1.308-.858-1.772-2.598-2.533l-.954-.409c-2.753-1.173-4.583-2.643-4.583-5.749 0-2.862 2.18-5.04 5.588-5.04 2.426 0 4.17.844 5.427 3.055l-2.971 1.908c-.654-1.173-1.36-1.635-2.456-1.635-1.118 0-1.826.709-1.826 1.635 0 1.145.709 1.608 2.346 2.317l.954.409C40.17 32.079 42 33.496 42 36.683 42 40.118 39.301 42 35.677 42z"/></svg>